<svg width="125" height="30" viewBox="0 0 125 30" fill="none" xmlns="http://www.w3.org/2000/svg">
<path fill-rule="evenodd" clip-rule="evenodd" d="M27.3362 18.1412H2.58618L2.70368 2.39124H27.3362V18.1412Z" fill="#EF6262" stroke="white" stroke-width="0.5" stroke-miterlimit="10"/>
<path fill-rule="evenodd" clip-rule="evenodd" d="M29.5862 20.3912H4.83618L4.95368 4.64124H29.5862V20.3912Z" fill="#FFDA7B" stroke="white" stroke-width="0.5" stroke-miterlimit="10"/>
<path fill-rule="evenodd" clip-rule="evenodd" d="M31.8362 22.6412H7.08618L7.20368 6.89124H31.8362V22.6412Z" fill="#84C560" stroke="white" stroke-width="0.5" stroke-miterlimit="10"/>
<path fill-rule="evenodd" clip-rule="evenodd" d="M34.0862 24.8912H9.33618L9.45368 9.14124H34.0862V24.8912Z" fill="white"/>
<path d="M42.6387 11.9587L42.9137 14.9587L42.8387 14.5337C43.1036 13.9043 43.5151 13.3472 44.0387 12.9087C44.53 12.4863 45.0767 12.133 45.6637 11.8587C46.0915 11.6408 46.5595 11.5131 47.0387 11.4837L46.8637 14.2837C46.1485 14.2037 45.4265 14.3525 44.8012 14.7087C44.2233 15.0463 43.7481 15.5345 43.4262 16.1212C43.1072 16.6902 42.9394 17.3314 42.9387 17.9837V22.5337H40.1637V11.9587H42.6387Z" fill="white"/>
<path d="M53.6887 22.8088C52.5905 22.8358 51.503 22.5865 50.5262 22.0838C49.6662 21.6306 48.9578 20.9353 48.4887 20.0838C48.0109 19.184 47.77 18.1774 47.7887 17.1588C47.775 16.1436 48.0526 15.1459 48.5887 14.2838C49.1255 13.4325 49.8696 12.7314 50.7512 12.2463C51.6698 11.7417 52.7033 11.4833 53.7512 11.4963C55.2012 11.4963 56.3971 11.9129 57.3387 12.7463C58.2804 13.5796 58.9096 14.7671 59.2262 16.3088L50.7012 19.1838L50.0762 17.6088L56.7012 15.2338L56.1512 15.5838C55.9694 15.0689 55.6597 14.6086 55.2512 14.2463C54.7679 13.8476 54.1517 13.6466 53.5262 13.6838C52.9796 13.6742 52.4416 13.8217 51.9762 14.1088C51.5255 14.3955 51.1589 14.7966 50.9137 15.2713C50.6469 15.802 50.5138 16.3899 50.5262 16.9838C50.5079 17.6226 50.6543 18.2554 50.9512 18.8213C51.2177 19.3124 51.616 19.7193 52.1012 19.9963C52.6055 20.2762 53.1746 20.4185 53.7512 20.4088C54.1781 20.4101 54.6016 20.3338 55.0012 20.1838C55.4009 20.0339 55.7792 19.8322 56.1262 19.5838L57.4012 21.6588C56.8365 22.0164 56.2271 22.298 55.5887 22.4963C54.975 22.6965 54.3343 22.8019 53.6887 22.8088V22.8088Z" fill="white"/>
<path d="M67.6637 22.8087C66.9208 22.8105 66.1866 22.6483 65.5137 22.3337C64.8686 22.0483 64.3087 21.6004 63.8887 21.0337L64.0387 20.1837V27.6087H61.2637V11.7587H63.6387L64.0637 14.1837L63.7637 13.4587C64.3238 12.8858 64.9741 12.4086 65.6887 12.0462C66.4651 11.6616 67.3224 11.4687 68.1887 11.4837C69.1314 11.4692 70.0603 11.7112 70.8762 12.1837C71.6707 12.6534 72.3163 13.338 72.7387 14.1587C73.2106 15.1046 73.4424 16.1521 73.4137 17.2087C73.4437 18.2586 73.1842 19.2965 72.6637 20.2087C72.1755 21.0309 71.4648 21.6982 70.6137 22.1337C69.6997 22.595 68.6872 22.8266 67.6637 22.8087ZM67.1137 20.5837C67.7157 20.5928 68.3098 20.4464 68.8387 20.1587C69.3595 19.8762 69.7931 19.4567 70.0927 18.9456C70.3924 18.4345 70.5466 17.8511 70.5387 17.2587C70.5515 16.6428 70.4005 16.0346 70.1012 15.4962C69.8214 15.0002 69.4162 14.5864 68.9262 14.2962C68.4304 14.004 67.8642 13.8527 67.2887 13.8587C66.7958 13.8513 66.3066 13.9449 65.8512 14.1337C65.4325 14.3148 65.0575 14.5833 64.7512 14.9212C64.4382 15.2717 64.2038 15.6852 64.0637 16.1337V18.2587C64.159 18.6981 64.356 19.1091 64.6387 19.4587C64.9286 19.8129 65.2966 20.0952 65.7137 20.2837C66.1528 20.4848 66.6307 20.5872 67.1137 20.5837V20.5837Z" fill="white"/>
<path d="M80.6387 22.8087C79.5404 22.8358 78.453 22.5865 77.4762 22.0837C76.6161 21.6306 75.9078 20.9352 75.4387 20.0837C74.9608 19.184 74.7199 18.1774 74.7387 17.1587C74.7249 16.1436 75.0026 15.1458 75.5387 14.2837C76.0755 13.4325 76.8195 12.7314 77.7012 12.2462C78.6235 11.7395 79.6615 11.4811 80.7137 11.4962C82.1637 11.4962 83.3595 11.9129 84.3012 12.7462C85.2429 13.5796 85.872 14.7671 86.1887 16.3087L77.6637 19.1837L77.0387 17.6087L83.6637 15.2337L83.1137 15.5837C82.9319 15.0688 82.6222 14.6086 82.2137 14.2462C81.7304 13.8476 81.1141 13.6466 80.4887 13.6837C79.942 13.6742 79.4041 13.8217 78.9387 14.1087C78.4879 14.3954 78.1213 14.7966 77.8762 15.2712C77.6093 15.8019 77.4763 16.3898 77.4887 16.9837C77.4704 17.6225 77.6167 18.2553 77.9137 18.8212C78.1801 19.3123 78.5784 19.7193 79.0637 19.9962C79.5679 20.2762 80.137 20.4185 80.7137 20.4087C81.1405 20.41 81.5641 20.3338 81.9637 20.1837C82.3634 20.0339 82.7416 19.8322 83.0887 19.5837L84.3637 21.6587C83.799 22.0164 83.1895 22.298 82.5512 22.4962C81.9335 22.6977 81.2884 22.8031 80.6387 22.8087V22.8087Z" fill="white"/>
<path d="M89.2137 7.30875H92.0137V11.9587H94.7637V14.1412H92.0137V22.5412H89.2137V14.1412H87.3887V11.9662H89.2137V7.30875Z" fill="white"/>
<path d="M96.6637 8.14123C96.6621 7.93977 96.7062 7.74058 96.7929 7.55868C96.8795 7.37679 97.0063 7.21695 97.1637 7.09123C97.4661 6.81991 97.8574 6.66873 98.2637 6.66623C98.6665 6.66756 99.0543 6.81911 99.3512 7.09123C99.51 7.22129 99.6374 7.38549 99.724 7.57161C99.8106 7.75773 99.8541 7.96098 99.8512 8.16623C99.8523 8.3676 99.8079 8.56661 99.7213 8.74842C99.6347 8.93023 99.5082 9.09014 99.3512 9.21623C99.0543 9.48835 98.6665 9.6399 98.2637 9.64123C97.8574 9.63873 97.4661 9.48755 97.1637 9.21623C97.0041 9.08691 96.876 8.92285 96.7894 8.73655C96.7027 8.55026 96.6597 8.34665 96.6637 8.14123V8.14123ZM96.7887 11.9662H99.5862V22.5412H96.7862L96.7887 11.9662Z" fill="white"/>
<path d="M103.586 22.5338V14.4088H101.786V11.9337H103.586V7.78375C103.586 6.31875 103.957 5.16458 104.699 4.32125C105.44 3.47792 106.52 3.06125 107.936 3.07125C108.379 3.07652 108.82 3.13527 109.249 3.24625C109.706 3.35599 110.141 3.54192 110.536 3.79625L109.361 5.82125C109.217 5.65525 109.032 5.53021 108.824 5.45875C108.633 5.40108 108.435 5.3716 108.236 5.37125C107.983 5.36001 107.73 5.40583 107.496 5.50535C107.262 5.60486 107.054 5.75553 106.886 5.94625C106.553 6.33125 106.386 6.96458 106.386 7.84625V11.9462H109.686V14.4212H106.386V22.5462L103.586 22.5338Z" fill="white"/>
<path d="M115.564 22.6087L110.414 11.9587H113.564L117.714 21.1837L115.564 22.6087ZM112.864 27.6087L119.839 11.9587H122.414L115.586 27.6087H112.864Z" fill="white"/>
</svg>
