<svg width="125" height="30" viewBox="0 0 125 30" fill="none" xmlns="http://www.w3.org/2000/svg">
<path d="M39.2638 11.6188L39.5388 14.6188L39.4638 14.1938C39.7287 13.5644 40.1401 13.0073 40.6638 12.5688C41.155 12.1464 41.7018 11.7931 42.2888 11.5188C42.7165 11.3008 43.1846 11.1732 43.6638 11.1438L43.4888 13.9438C42.7736 13.8638 42.0515 14.0126 41.4263 14.3688C40.8484 14.7064 40.3731 15.1946 40.0513 15.7813C39.7323 16.3503 39.5645 16.9915 39.5638 17.6438V22.1938H36.7888V11.6188H39.2638Z" fill="white"/>
<path d="M50.3137 22.4688C49.2154 22.4971 48.1276 22.2477 47.1512 21.7438C46.2912 21.2907 45.5828 20.5954 45.1137 19.7438C44.6359 18.8441 44.395 17.8375 44.4137 16.8189C44.4 15.8037 44.6776 14.8059 45.2137 13.9439C45.7505 13.0926 46.4946 12.3915 47.3762 11.9063C48.2948 11.4018 49.3283 11.1434 50.3762 11.1563C51.8262 11.1563 53.0221 11.573 53.9637 12.4063C54.9054 13.2397 55.5346 14.4272 55.8512 15.9688L47.3262 18.8438L46.7012 17.2688L53.3262 14.8938L52.7762 15.2438C52.5944 14.729 52.2847 14.2687 51.8762 13.9063C51.3929 13.5077 50.7767 13.3067 50.1512 13.3438C49.6046 13.3343 49.0666 13.4818 48.6012 13.7688C48.1505 14.0556 47.7839 14.4567 47.5387 14.9313C47.2719 15.462 47.1388 16.05 47.1512 16.6438C47.1329 17.2827 47.2793 17.9154 47.5762 18.4813C47.8427 18.9725 48.241 19.3794 48.7262 19.6563C49.2305 19.9363 49.7996 20.0786 50.3762 20.0689C50.8031 20.0702 51.2266 19.9939 51.6262 19.8438C52.0259 19.694 52.4042 19.4923 52.7512 19.2438L54.0262 21.3189C53.4615 21.6765 52.8521 21.9581 52.2137 22.1563C51.6003 22.3578 50.9594 22.4632 50.3137 22.4688V22.4688Z" fill="white"/>
<path d="M64.2887 22.4688C63.5458 22.4706 62.8117 22.3084 62.1387 21.9938C61.4937 21.7084 60.9338 21.2605 60.5137 20.6938L60.6637 19.8438V27.2688H57.8887V11.4188H60.2637L60.6887 13.8438L60.3887 13.1188C60.9488 12.5459 61.5991 12.0687 62.3137 11.7063C63.0901 11.3217 63.9474 11.1288 64.8137 11.1438C65.7564 11.1293 66.6854 11.3713 67.5012 11.8438C68.2958 12.3135 68.9414 12.9981 69.3637 13.8188C69.8356 14.7647 70.0675 15.8122 70.0387 16.8688C70.0688 17.9187 69.8093 18.9566 69.2887 19.8688C68.8013 20.6916 68.0905 21.3591 67.2387 21.7938C66.3248 22.2551 65.3123 22.4867 64.2887 22.4688V22.4688ZM63.7387 20.2438C64.3407 20.2529 64.9349 20.1065 65.4637 19.8188C65.9845 19.5363 66.4182 19.1168 66.7178 18.6057C67.0174 18.0946 67.1716 17.5112 67.1637 16.9188C67.1766 16.3029 67.0256 15.6947 66.7262 15.1563C66.4465 14.6603 66.0413 14.2465 65.5512 13.9563C65.0554 13.6641 64.4892 13.5128 63.9137 13.5188C63.4208 13.5114 62.9316 13.605 62.4762 13.7938C62.0576 13.9749 61.6825 14.2434 61.3762 14.5813C61.0638 14.9322 60.8295 15.3455 60.6887 15.7938V17.9188C60.7841 18.3582 60.981 18.7692 61.2637 19.1188C61.5537 19.473 61.9216 19.7553 62.3387 19.9438C62.7779 20.1449 63.2557 20.2473 63.7387 20.2438V20.2438Z" fill="white"/>
<path d="M77.2638 22.4688C76.1654 22.4971 75.0776 22.2477 74.1013 21.7438C73.2412 21.2907 72.5328 20.5953 72.0638 19.7438C71.5859 18.8441 71.345 17.8374 71.3638 16.8188C71.35 15.8037 71.6276 14.8059 72.1638 13.9438C72.7005 13.0926 73.4446 12.3915 74.3263 11.9063C75.2485 11.3996 76.2866 11.1412 77.3388 11.1563C78.7888 11.1563 79.9846 11.573 80.9263 12.4063C81.8679 13.2397 82.4971 14.4272 82.8138 15.9688L74.2888 18.8438L73.6638 17.2688L80.2888 14.8938L79.7388 15.2438C79.5569 14.7289 79.2472 14.2687 78.8388 13.9063C78.3555 13.5077 77.7392 13.3067 77.1138 13.3438C76.5671 13.3343 76.0291 13.4818 75.5638 13.7688C75.113 14.0555 74.7464 14.4567 74.5013 14.9313C74.2344 15.462 74.1013 16.0499 74.1138 16.6438C74.0954 17.2826 74.2418 17.9154 74.5388 18.4813C74.8052 18.9724 75.2035 19.3794 75.6888 19.6563C76.193 19.9363 76.7621 20.0786 77.3388 20.0688C77.7656 20.0701 78.1892 19.9939 78.5888 19.8438C78.9884 19.694 79.3667 19.4923 79.7138 19.2438L80.9888 21.3188C80.424 21.6765 79.8146 21.9581 79.1763 22.1563C78.5588 22.359 77.9136 22.4644 77.2638 22.4688Z" fill="white"/>
<path d="M85.8387 6.96884H88.6387V11.6188H91.3887V13.8013H88.6387V22.2013H85.8387V13.8013H84.0137V11.6263H85.8387V6.96884Z" fill="white"/>
<path d="M93.2888 7.80132C93.2873 7.5999 93.3316 7.40076 93.4182 7.2189C93.5048 7.03703 93.6315 6.87717 93.7888 6.75133C94.0912 6.48001 94.4825 6.32882 94.8888 6.32632C95.2915 6.32765 95.6793 6.4792 95.9763 6.75133C96.1349 6.8815 96.2623 7.04573 96.3488 7.23182C96.4354 7.41791 96.4789 7.6211 96.4763 7.82632C96.4773 8.02769 96.4329 8.2267 96.3464 8.40851C96.2598 8.59032 96.1333 8.75024 95.9763 8.87633C95.6798 9.14929 95.2917 9.30097 94.8888 9.30132C94.4823 9.3 94.0906 9.14866 93.7888 8.87633C93.6291 8.747 93.5011 8.58294 93.4144 8.39665C93.3278 8.21036 93.2848 8.00674 93.2888 7.80132V7.80132ZM93.4138 11.6263H96.2113V22.2013H93.4113L93.4138 11.6263Z" fill="white"/>
<path d="M100.211 22.1938V14.0688H98.4113V11.5938H100.211V7.44385C100.211 5.97885 100.582 4.82468 101.324 3.98135C102.065 3.13801 103.145 2.72135 104.561 2.73135C105.004 2.73776 105.445 2.7965 105.874 2.90635C106.331 3.01608 106.766 3.20202 107.161 3.45635L105.986 5.48135C105.842 5.31534 105.657 5.1903 105.449 5.11885C105.258 5.06117 105.06 5.03169 104.861 5.03135C104.608 5.0201 104.355 5.06593 104.121 5.16544C103.887 5.26496 103.679 5.41562 103.511 5.60635C103.178 5.99135 103.011 6.62468 103.011 7.50635V11.6063H106.311V14.0813H103.011V22.2063L100.211 22.1938Z" fill="white"/>
<path d="M112.189 22.2688L107.039 11.6188H110.189L114.339 20.8438L112.189 22.2688ZM109.489 27.2688L116.464 11.6188H119.039L112.211 27.2688H109.489Z" fill="white"/>
<path fill-rule="evenodd" clip-rule="evenodd" d="M30.7112 24.4464H5.96124L6.07874 8.69635H30.7112V24.4464Z" fill="white"/>
</svg>
